# xmcd CD database file
# Copyright (C) 1997 Ti Kan
#
# Track frame offsets:
#  150
#  13280
#  27877
#  43040
#  55925
#  69020
#  81320
#  95452
#  110342
#  122810
#
# Disc length: 1813 seconds
#
# Revision: 1
# Processed by: cddbd v1.4b41PL1 Copyright (c) Steve Scherf et al.
# Submitted via: CDWizzard Release:4.30
#
DISCID=7d07130a
DTITLE=Merle Haggard - Merle Haggard Greatest Hits Vol 2
DYEAR=1900
DGENRE=
TTITLE0=The Fightin' Side of Me
TTITLE1=Daddy Frank (The Guitar Man)
TTITLE2=It's Not Love (But It's Not Bad)
TTITLE3=I Wonder If They Ever Think Of Me
TTITLE4=Everydody's Had the Blues
TTITLE5=If We Make it Through December
TTITLE6=Always Wanting You
TTITLE7=It's All In the Movies
TTITLE8=The Roots of My Raising
TTITLE9=Cherokee Maiden
EXTD=
EXTT0=
EXTT1=
EXTT2=
EXTT3=
EXTT4=
EXTT5=
EXTT6=
EXTT7=
EXTT8=
EXTT9=
PLAYORDER=
